<?xml version="1.0" encoding="UTF-8"?>
<svg xmlns="http://www.w3.org/2000/svg" width="960" height="1240" viewBox="0 0 960 1240">
	<path stroke="#c9a84c" stroke-width="6" fill="none" d="M 496.233,1221.94 c -2.29608,-7.64108 -3.9562,-37.104 -3.24624,-57.6165 c 1.28856,-37.2351 2.29556,-57.9455 3.27816,-67.4154 c 1.50716,-14.527 6.72265,-48.5715 7.67801,-50.1172 c 1.39612,-2.2588 0.942001,-65.3311 -0.55904,-77.6584 c -0.734881,-6.03608 -1.46564,-27.896 -1.62396,-48.5777 c -0.2956,-38.6024 -1.2386,-47.1622 -6.39412,-58.0327 c -2.57776,-5.43552 -2.8856,-9.00424 -2.30984,-26.7818 c 0.3656,-11.2809 0.004,-24.6856 -0.800641,-29.7882 c -4.79972,-30.3967 -8.11033,-64.92 -7.61833,-79.4458 c 0.48592,-14.341 1.00344,-16.7684 4.83232,-22.671 c 7.15889,-11.036 15.2579,-32.8946 20.2058,-54.5339 c 5.28564,-23.1167 9.08541,-40.2742 10.7632,-48.6017 c 2.08792,-10.3627 5.68492,-22.7721 10.2247,-35.2755 c 5.31648,-14.6423 5.83276,-36.0594 0.869361,-36.0594 c -0.694001,0 -3.2398,2.85392 -5.65704,6.342 c -2.41724,3.48804 -11.1556,11.2543 -19.4188,17.2582 c -19.6156,14.2528 -27.4295,22.0179 -29.6651,29.4802 c -2.18252,7.28408 -2.3814,16.9387 -0.3748,18.1789 c 0.795001,0.4914 3.02388,5.636 4.95272,11.4324 c 3.80604,11.4373 4.38072,23.728 1.68256,35.9905 c -0.910721,4.139 -2.45156,12.8168 -3.42364,19.284 c -0.972281,6.46724 -2.29512,15.138 -2.93948,19.2685 c -0.64452,4.13052 -2.28336,8.62148 -3.64176,9.97988 c -2.248,2.248 -2.67984,2.13668 -4.80648,-1.23884 c -1.28528,-2.03976 -2.8076,-7.0502 -3.38324,-11.1344 c -0.5756,-4.08416 -3.82684,-16.6683 -7.22497,-27.9648 c -7.68565,-25.5498 -8.25141,-37.8498 -2.25896,-49.1201 c 2.15576,-4.05436 3.91676,-8.92164 3.91376,-10.8161 c -0.00800001,-5.59128 -5.16424,-12.4643 -17.3778,-23.1704 c -16.5221,-14.4832 -20.2166,-18.5641 -23.9768,-26.4839 c -4.00316,-8.432 -7.17329,-9.50748 -10.6483,-3.61268 c -4.1618,7.05884 -6.09224,21.3601 -6.96617,51.6025 l -0.821281,28.4327 l 4.57988,5.27496 c 7.52125,8.6626 28.2906,38.5472 32.3077,46.4869 c 7.99477,15.8018 10.1616,27.3876 10.3249,55.2077 c 0.1632,27.7515 2.23312,53.3156 4.68808,57.9032 c 0.832761,1.5558 1.18712,3.15544 0.787801,3.55488 c -0.3992,0.3992 0.958001,4.90156 3.01636,10.0049 c 2.05836,5.10328 4.23084,14.57 4.82776,21.0372 c 0.59676,6.46712 2.40144,17.4026 4.01036,24.3008 c 5.22848,22.4169 6.48652,33.0063 5.6068,47.2 c -0.47492,7.66924 -1.23968,25.9378 -1.69928,40.5968 c -3.06772,97.8835 -4.33312,135.902 -4.77404,143.454 c -0.2772,4.7426 -0.913401,26.9662 -1.41416,49.3857 c -0.853401,38.1979 -3.04112,64.1448 -5.66192,67.1513 c -1.49148,1.7112 -18.9101,-11.4963 -29.3361,-22.244 c -8.79821,-9.06988 -9.41285,-11.2332 -6.62336,-23.3206 c 1.62976,-7.0626 5.28564,-42.861 7.80825,-76.4596 c 0.842001,-11.2098 1.90632,-24.6144 2.36544,-29.7882 c 1.94904,-21.9595 3.8826,-47.7024 6.1226,-81.5255 c 1.31376,-19.8326 3.1258,-38.5287 4.02648,-41.5467 c 0.901161,-3.01804 2.08904,-23.1732 2.64024,-44.7892 l 1.002,-39.3018 l -5.28796,-10.0838 c -4.02604,-7.67752 -11.4195,-16.2566 -30.9838,-35.9524 c -14.1327,-14.2278 -27.7499,-28.837 -30.2605,-32.4649 l -4.565,-6.5962 l 1.7674,-25.5436 c 2.54752,-36.8184 2.57088,-113.832 0.042,-138.425 l -2.09576,-20.3815 l -7.69585,-10.5989 c -13.7451,-18.9302 -13.6041,-18.1747 -14.5697,-77.9817 c -0.2296,-14.2278 -0.893801,-26.9421 -1.47616,-28.2541 c -1.94656,-4.38592 -7.14341,-6.24012 -20.014,-7.14132 c -20.7751,-1.45476 -25.6958,-4.45724 -55.8963,-34.1087 c -14.4161,-14.154 -28.9151,-28.0647 -32.2202,-30.9129 c -6.5886,-5.6778 -6.5286,-4.65828 -1.32332,-22.5756 l 3.16528,-10.8947 l -3.95152,-7.13496 c -2.17328,-3.92404 -4.90948,-8.2154 -6.08044,-9.53612 c -3.12848,-3.52864 -12.8935,-25.5274 -14.0369,-31.623 c -0.730481,-3.89364 -0.20276,-6.25928 2.03688,-9.13228 c 5.2318,-6.71076 7.96909,-13.3076 10.4404,-25.1596 c 5.46792,-26.2236 18.1353,-61.1462 24.8375,-68.4742 c 7.44389,-8.13876 18.0513,-2.46364 22.0533,11.7988 c 3.15212,11.2344 3.21756,22.9369 0.24348,43.4661 c -1.24956,8.62288 -2.29416,20.3387 -2.3214,26.0352 c -0.04512,9.39788 0.44312,11.0024 5.26932,17.3232 c 7.81377,10.2335 18.1237,17.3732 35.6135,24.663 c 3.97376,1.65624 8.95089,4.66672 11.0606,6.68996 c 26.1914,25.1177 43.6352,37.9199 53.7966,39.4817 c 12.1293,1.86428 18.7112,10.645 23.5233,31.3818 c 3.07444,13.2487 9.37961,26.099 12.8062,26.099 c 1.39268,0 4.90824,-1.46852 7.81265,-3.26344 c 4.63372,-2.86396 5.27872,-4.06364 5.26744,-9.7988 c -0.016,-8.7016 -2.73776,-33.003 -4.68104,-41.8107 c -0.855921,-3.88032 -1.8338,-9.52432 -2.1722,-12.5424 c -0.3388,-3.01792 -1.42228,-9.01484 -2.40752,-13.3263 c -5.97696,-26.1523 -8.55565,-36.2392 -9.61953,-37.6272 c -3.62768,-4.7332 -9.56221,-23.9082 -11.5462,-37.3068 c -3.85504,-26.0341 -9.28429,-33.3509 -30.2503,-40.7672 c -10.8755,-3.84708 -20.8434,-9.66512 -31.2232,-18.2245 c -2.69488,-2.22232 -9.39733,-7.5574 -14.8942,-11.8557 c -5.49668,-4.29824 -10.3468,-8.26556 -10.7779,-8.81596 c -0.43124,-0.55036 -3.26392,-2.67772 -6.29484,-4.72732 c -14.6296,-9.892 -20.7129,-16.3532 -26.388,-28.0272 l -5.71608,-11.7585 l -0.52096,-30.416 l -0.52096,-30.4157 l 16.1929,-15.3555 c 9.26282,-8.78392 19.8831,-17.2378 24.8156,-19.7538 c 7.75941,-3.95776 10.4286,-4.43844 26.6525,-4.79952 c 19.999,-0.44524 23.7286,0.0532 27.3271,3.6512 c 3.58304,3.5834 3.19672,14.9895 -0.674441,19.9111 c -1.72464,2.19244 -3.13568,4.63584 -3.13568,5.42992 c 0,1.35052 -6.12352,11.5004 -12.7143,21.0737 c -1.58968,2.30924 -5.00108,12.5479 -5.55104,15.9861 c 47.8976,31.3891 50.5053,8.84048 32.9804,67.9213 l 26.7302,5.96208 c 7.29497,-20.2899 15.1603,-40.4617 20.1913,-61.4644 c 0.680841,-17.8823 -28.0736,-9.82836 -36.0934,-20.3382 c -5.46836,-13.9063 7.33457,-33.2371 14.2051,-44.9949 c 3.74432,-5.4862 15.5165,-11.02 20.6836,-9.72316 c 2.06068,0.5172 9.74917,-0.81776 17.2818,-3.00064 c 7.46333,-2.16276 15.4308,-3.93784 17.7059,-3.9444 c 2.2746,-0.008 8.58509,-1.36492 14.0229,-3.01864 c 8.56289,-2.6038 10.558,-2.73048 14.8944,-0.94588 c 2.75376,1.13356 8.88713,2.56588 13.6297,3.18296 c 4.7426,0.61704 11.0692,2.63564 14.0594,4.48532 c 2.99004,1.84984 8.28149,4.13772 11.7584,5.08408 c 5.88896,1.60288 7.02049,1.33512 16.5129,-3.9062 l 10.1907,-5.62696 l 25.0848,-0.9642 c 24.4803,-0.94116 25.3421,-1.09228 35.7605,-6.275 l 10.6754,-5.31044 l 5.76528,3.34336 c 4.1134,2.38572 7.36841,6.39976 11.3622,14.0117 c 5.54148,10.5618 5.5736,10.7341 3.21788,17.2852 c -2.06036,5.7298 -2.0928,7.73864 -0.2428,14.983 c 1.17568,4.60132 3.39092,10.8354 4.92332,13.8534 c 1.53236,3.018 2.9144,7.25104 3.07116,9.40676 c 0.736881,10.1404 -0.06,12.4278 -5.65488,16.2296 c -5.08424,3.4548 -16.3566,18.5418 -16.3566,21.8917 c 0,0.76112 -1.12776,3.95964 -2.50604,7.10804 c -11.8089,26.9741 -15.845,31.781 -33.4257,39.8079 c -21.5514,9.8396 -28.818,12.1664 -37.9971,12.1664 c -7.27181,0 -9.36633,0.58292 -10.639,2.96096 c -0.871721,1.62868 -5.18008,5.5442 -9.57473,8.70144 c -4.78316,3.43632 -8.90661,7.93336 -10.2733,11.2048 c -1.25584,3.0054 -3.87964,6.0714 -5.83104,6.81328 c -1.95108,0.74188 -4.5376,2.54172 -5.74756,3.9996 c -1.20996,1.45812 -8.58885,7.13348 -16.3974,12.6123 c -7.80877,5.47868 -16.107,11.7673 -18.4405,13.9745 c -2.3338,2.20692 -4.85644,4.01288 -5.606,4.01288 c -0.749601,0 -2.99632,1.73852 -4.99268,3.86352 c -3.06612,3.26368 -3.4822,4.93952 -2.67984,10.7929 c 0.52224,3.811 2.02264,10.0095 3.33344,13.7741 c 3.10376,8.91188 3.06164,18.4222 -0.1092,24.7786 c -3.3408,6.69692 -2.09076,15.5927 3.15868,22.4749 c 4.70032,6.1622 5.06156,10.6905 1.6534,20.7285 c -1.43464,4.22596 -2.45668,12.7808 -2.4952,20.8872 c -0.0544,11.4452 0.51452,14.712 3.41876,19.6341 c 2.81516,4.77176 4.27172,5.81324 7.59049,5.42836 c 4.64612,-0.5388 5.39336,-2.46156 11.0407,-28.4094 c 5.11748,-23.5136 8.68813,-27.9452 32.2611,-40.0388 c 6.89833,-3.539 17.4811,-9.27572 23.5171,-12.7484 c 6.03596,-3.47252 15.9131,-8.65176 21.9494,-11.5092 c 15.6402,-7.40424 25.8984,-15.2702 35.682,-27.3619 c 16.6707,-20.6029 23.3913,-38.0256 30.1081,-78.0525 c 1.28856,-7.68064 3.3416,-13.2316 6.69649,-18.1078 c 3.02356,-4.39452 5.56516,-10.8247 6.77637,-17.1445 c 2.382,-12.4262 6.67129,-21.2752 13.0732,-26.9704 c 11.0152,-9.79952 14.0725,-2.56336 10.7645,25.4806 c -1.0676,9.05404 -2.5832,24.2225 -3.36772,33.7077 l -1.42588,17.2458 l 10.4228,9.59396 l 10.4228,9.59404 l 0.2496,19.7388 c 0.1372,10.8566 1.1096,22.3452 2.16076,25.5307 l 1.91132,5.7916 l -15.0782,14.7152 c -20.0079,19.5264 -30.1944,32.6593 -39.2841,50.6474 c -4.1386,8.19016 -8.75969,16.6563 -10.269,18.8136 c -5.10524,7.29684 -15.1335,30.4851 -20.5407,47.4955 l -5.3788,16.9208 l -16.3312,15.219 c -8.98221,8.37068 -18.6554,16.983 -21.4964,19.1387 c -7.15765,5.43164 -9.99033,12.0704 -9.99033,23.4142 c 0,6.98992 1.01456,11.6323 3.71648,17.0088 c 2.04424,4.06716 4.24416,9.15876 4.889,11.3144 c 0.64464,2.15576 2.29916,5.20112 3.6762,6.76756 c 3.27348,3.72376 4.498,37.7809 1.95688,54.4217 c -1.60376,10.5015 -8.51713,28.1753 -11.0213,28.1753 c -4.20408,0 -9.52245,21.736 -11.8914,48.6017 c -0.41828,4.74256 -1.44956,13.9142 -2.29168,20.3814 c -0.842121,6.4672 -2.26084,23.3994 -3.15276,37.6272 c -1.7948,28.6344 -0.43828,43.9873 4.793,54.2483 c 7.99745,15.6868 1.21076,29.7465 -25.8458,53.5424 l -9.30261,8.18156 l 0.1732,12.1728 c 0.0956001,6.69512 1.2942,16.0532 2.66388,20.7958 c 10.8152,37.4469 11.0759,39.6588 10.2566,87.0128 c -1.07056,61.8765 -0.60972,94.3809 1.46708,103.475 c 0.984801,4.31144 2.1232,11.7193 2.52968,16.4619 c 0.40668,4.7426 1.5504,12.5032 2.54208,17.2458 c 1.10848,5.3016 1.81796,25.8333 1.84176,53.3051 l 0.04,44.6823 l -4.24996,6.17476 c -6.24208,9.06956 -35.3065,31.6446 -36.1887,28.7087 Z m 69.213,-105.724 c -0.4226,-0.70288 -0.771041,-16.0936 -0.774321,-34.2017 c -0.004,-32.9609 -2.0798,-64.5582 -5.29924,-80.7417 c -0.943441,-4.74256 -1.8938,-22.7331 -2.11192,-39.9788 c -0.3532,-27.9558 -3.27424,-57.1113 -6.19476,-61.8368 c -1.55068,-2.509 -7.07781,-41.4015 -7.09485,-49.924 c -0.02,-9.90636 2.37888,-14.0536 12.3712,-21.3887 c 9.71237,-7.12936 11.4015,-7.35028 12.853,-1.68112 c 0.66236,2.58684 3.40344,13.1695 6.09064,23.517 c 9.20097,35.426 9.70705,38.1438 9.48861,50.9534 c -0.2316,13.5549 -0.3104,14.358 -4.07644,41.5467 c -2.29464,16.5632 -2.74936,29.0458 -2.42836,66.6314 c 0.3884,45.4577 -1.50888,83.7486 -4.793,96.7331 c -1.64796,6.515 -6.5454,12.8403 -8.03065,10.3713 z m -166.38,-88.0755 c -0.55276,-0.89412 -2.3764,-12.2792 -4.05268,-25.3001 c -1.67628,-13.0209 -3.49644,-24.4005 -4.04496,-25.2879 c -0.54852,-0.88736 -1.59596,-7.73064 -2.32816,-15.2073 c -0.731881,-7.47664 -2.13212,-17.4742 -3.11124,-22.2168 c -2.31768,-11.2264 -7.85009,-45.3498 -8.00685,-49.3856 c -0.0668001,-1.7246 -0.807361,-9.4852 -1.64556,-17.2458 c -1.57292,-14.5622 -1.97068,-64.8602 -0.52428,-66.3066 c 2.24736,-2.24728 15.5312,6.46924 26.547,17.4192 l 12.3731,12.2996 l -1.05352,15.1583 c -0.57936,8.33708 -1.40712,23.9772 -1.83896,34.7558 c -0.43204,10.7786 -1.14028,23.125 -1.57388,27.4365 c -0.43344,4.31144 -1.42888,21.9492 -2.21196,39.195 c -1.85384,40.8156 -4.5434,73.3314 -6.20276,74.9908 c -0.726401,0.7264 -1.77288,0.58912 -2.32532,-0.3052 z M 194.709,403.315 c 49.3893,29.9696 41.8159,33.1615 66.7741,41.3897 c 30.4819,10.0493 44.2376,16.7001 54.2487,39.5354 c -102.338,84.709 -161.735,135.709 -179.801,165.995 c -72.7098,121.894 -14.0281,238.101 147.059,204.397 c -33.2393,68.509 -182.754,67.1001 -231.282,-11.4823 c -57.821,-93.6307 -51.7392,-277.261 143,-439.835 Z M 688.751,822.904 c 132.788,16.1337 192.942,-88.4434 109.088,-209.139 c 0,0 -62.9854,-68.7683 -150.647,-159.288 c 6.98713,-36.2213 22.239,-75.2925 71.6599,-126.146 c 209.068,148.849 215.614,331.905 216.707,350.055 c 9.96509,165.454 -184.389,213.59 -246.808,144.519 Z" />
</svg>
